<?xml version="1.0" encoding="UTF-8" standalone="no"?>
<svg
   xmlns:dc="http://purl.org/dc/elements/1.1/"
   xmlns:cc="http://creativecommons.org/ns#"
   xmlns:rdf="http://www.w3.org/1999/02/22-rdf-syntax-ns#"
   xmlns:svg="http://www.w3.org/2000/svg"
   xmlns="http://www.w3.org/2000/svg"
   xmlns:sodipodi="http://sodipodi.sourceforge.net/DTD/sodipodi-0.dtd"
   xmlns:inkscape="http://www.inkscape.org/namespaces/inkscape"
   inkscape:version="1.0 (4035a4f, 2020-05-01)"
   sodipodi:docname="404.svg"
   xml:space="preserve"
   style="enable-background:new 0 0 380 127;"
   viewBox="0 0 380 127"
   y="0px"
   x="0px"
   id="Layer_1"
   version="1.1"><metadata
   id="metadata970"><rdf:RDF><cc:Work
       rdf:about=""><dc:format>image/svg+xml</dc:format><dc:type
         rdf:resource="http://purl.org/dc/dcmitype/StillImage" /><dc:title></dc:title></cc:Work></rdf:RDF></metadata><defs
   id="defs968">
	
	
	

		
		
		
		
		
		
		
	
		
		
		
		
	
		
		
		
		
		
		
		
		
		
		
		
		
		
		
		
		
		
		
		
		
		
		
		
		
		
		
		
		
		
		
		
		
		
		
		
		
		
		
		
		
		
		
	
			
			
		
			
			
		
			
			
		
			
			
		</defs><sodipodi:namedview
   inkscape:current-layer="Layer_1"
   inkscape:window-maximized="1"
   inkscape:window-y="23"
   inkscape:window-x="0"
   inkscape:cy="99.156372"
   inkscape:cx="260.2175"
   inkscape:zoom="2.9052632"
   inkscape:snap-center="true"
   inkscape:snap-bbox-edge-midpoints="true"
   inkscape:snap-bbox="true"
   showgrid="false"
   id="namedview966"
   inkscape:window-height="1315"
   inkscape:window-width="2560"
   inkscape:pageshadow="2"
   inkscape:pageopacity="0"
   guidetolerance="10"
   gridtolerance="10"
   objecttolerance="10"
   borderopacity="1"
   bordercolor="#666666"
   pagecolor="#ffffff" />
<style
   id="style833"
   type="text/css">
	.st0{opacity:0.15;fill:#958C87;}
	.st1{fill:#821822;}
	.st2{fill:#958C87;}
	.st3{fill:#4F4A44;}
	.st4{fill:#068587;}
	.st5{fill:#661822;}
	.st6{fill:#396E6E;}
	.st7{fill:none;stroke:#4F4A44;stroke-miterlimit:10;}
	.st8{opacity:0.15;fill:#821822;}
	.st9{display:none;}
	.st10{fill:#FFFFFF;}
	.st11{fill:#1D4B9A;}
	.st12{fill:none;stroke:#068587;stroke-miterlimit:10;}
	.st13{fill:none;stroke:#958C87;stroke-miterlimit:10;}
	.st14{fill:none;stroke:#958C87;stroke-width:4;stroke-miterlimit:10;}
</style>
<path
   class="st2"
   d="M 92.62,19.66 V 8.21 c 0,-1.12 0.9,-2.02 2.02,-2.02 h 18.19 c 1.12,0 2.02,0.9 2.02,2.02 v 11.45 z"
   id="path851" /><path
   class="st2"
   d="m 114.85,23.03 v 70.73 c 0,1.12 -0.9,2.02 -2.02,2.02 H 94.65 c -1.12,0 -2.02,-0.9 -2.02,-2.02 V 23.03 Z"
   id="path853" /><path
   class="st4"
   d="M 63.62,74.31 63.68,8.4 c 0,-1.11 0.9,-2.02 2.02,-2.02 L 83.89,6.35 c 1.12,0 2.02,0.9 2.02,2.02 l -0.06,65.9 z"
   id="path857" /><path
   class="st4"
   d="m 85.93,81.91 v 12 c 0,1.12 -0.9,2.02 -2.02,2.02 H 65.72 c -1.12,0 -2.02,-0.9 -2.02,-2.02 v -12 z"
   id="path859" /><path
   class="st3"
   d="M 34.7,19.66 V 8.21 c 0,-1.12 0.9,-2.02 2.02,-2.02 H 54.9 c 1.12,0 2.02,0.9 2.02,2.02 v 11.45 z"
   id="path863" /><path
   class="st3"
   d="m 56.92,26.4 v 67.36 c 0,1.12 -0.9,2.02 -2.02,2.02 H 36.72 c -1.12,0 -2.02,-0.9 -2.02,-2.02 V 26.4 Z"
   id="path865" /><path
   class="st1"
   d="M 3.43,77.44 9.34,6.87 C 9.43,5.76 10.41,4.93 11.52,5.03 l 18.12,1.52 c 1.11,0.09 1.94,1.07 1.84,2.18 l -5.9,70.57 z"
   id="path869" /><path
   class="st1"
   d="m 25.35,81.98 -1,11.99 c -0.09,1.11 -1.07,1.94 -2.18,1.84 L 4.04,94.3 C 2.93,94.21 2.1,93.23 2.2,92.12 l 1,-11.99 z"
   id="path871" />
<text
   inkscape:transform-center-x="9.5319748e-06"
   inkscape:transform-center-y="-19.073632"
   id="text974"
   y="95.808769"
   x="275.9137"
   style="font-size:51.7602px;line-height:1.25;font-family:Palatino;-inkscape-font-specification:Palatino;text-align:center;text-anchor:middle;fill:#821822;fill-opacity:1;stroke-width:1"
   xml:space="preserve"><tspan
     style="font-style:normal;font-variant:normal;font-weight:600;font-stretch:normal;font-family:'Terminal Dosis';-inkscape-font-specification:'Terminal Dosis Semi-Bold';fill:#821822;fill-opacity:1;stroke-width:1"
     y="95.808769"
     x="275.9137"
     id="tspan972"
     sodipodi:role="line">404</tspan></text><text
   id="text1111"
   y="120.6974"
   x="275.74228"
   style="font-size:20.02899999999999991px;line-height:1.25;font-family:Palatino;-inkscape-font-specification:Palatino;text-align:center;text-anchor:middle;stroke-width:0.999995;fill:#4f4a44;fill-opacity:1;"
   xml:space="preserve"><tspan
     style="font-style:normal;font-variant:normal;font-weight:500;font-stretch:normal;font-family:'Terminal Dosis';-inkscape-font-specification:'Terminal Dosis Medium';stroke-width:0.999995;fill:#4f4a44;fill-opacity:1;"
     y="120.6974"
     x="275.74228"
     id="tspan1109"
     sodipodi:role="line">Not Found</tspan></text></svg>
