<?xml version="1.0" encoding="UTF-8" standalone="no"?>
<svg
   xmlns:dc="http://purl.org/dc/elements/1.1/"
   xmlns:cc="http://creativecommons.org/ns#"
   xmlns:rdf="http://www.w3.org/1999/02/22-rdf-syntax-ns#"
   xmlns:svg="http://www.w3.org/2000/svg"
   xmlns="http://www.w3.org/2000/svg"
   xmlns:sodipodi="http://sodipodi.sourceforge.net/DTD/sodipodi-0.dtd"
   xmlns:inkscape="http://www.inkscape.org/namespaces/inkscape"
   height="127"
   width="154.69266"
   inkscape:version="1.0 (4035a4f, 2020-05-01)"
   sodipodi:docname="404.svg"
   xml:space="preserve"
   viewBox="0 0 154.69266 127"
   y="0px"
   x="0px"
   id="Layer_1"
   version="1.1"><metadata
   id="metadata970"><rdf:RDF><cc:Work
       rdf:about=""><dc:format>image/svg+xml</dc:format><dc:type
         rdf:resource="http://purl.org/dc/dcmitype/StillImage" /><dc:title></dc:title></cc:Work></rdf:RDF></metadata><defs
   id="defs968" /><sodipodi:namedview
   fit-margin-bottom="0"
   fit-margin-right="0"
   fit-margin-left="0"
   fit-margin-top="0"
   inkscape:bbox-nodes="true"
   inkscape:snap-others="true"
   inkscape:snap-nodes="false"
   inkscape:bbox-paths="true"
   inkscape:object-paths="true"
   inkscape:object-nodes="false"
   inkscape:snap-page="true"
   inkscape:current-layer="Layer_1"
   inkscape:window-maximized="1"
   inkscape:window-y="23"
   inkscape:window-x="0"
   inkscape:cy="71.516792"
   inkscape:cx="84.194409"
   inkscape:zoom="4.1086626"
   inkscape:snap-center="false"
   inkscape:snap-bbox-edge-midpoints="false"
   inkscape:snap-bbox="true"
   showgrid="false"
   id="namedview966"
   inkscape:window-height="1315"
   inkscape:window-width="2560"
   inkscape:pageshadow="2"
   inkscape:pageopacity="0"
   guidetolerance="10"
   gridtolerance="10"
   objecttolerance="10"
   borderopacity="1"
   bordercolor="#666666"
   pagecolor="#ffffff" />
<style
   id="style833"
   type="text/css">
	.st0{opacity:0.15;fill:#958C87;}
	.st1{fill:#821822;}
	.st2{fill:#958C87;}
	.st3{fill:#4F4A44;}
	.st4{fill:#068587;}
	.st5{fill:#661822;}
	.st6{fill:#396E6E;}
	.st7{fill:none;stroke:#4F4A44;stroke-miterlimit:10;}
	.st8{opacity:0.15;fill:#821822;}
	.st9{display:none;}
	.st10{fill:#FFFFFF;}
	.st11{fill:#1D4B9A;}
	.st12{fill:none;stroke:#068587;stroke-miterlimit:10;}
	.st13{fill:none;stroke:#958C87;stroke-miterlimit:10;}
	.st14{fill:none;stroke:#958C87;stroke-width:4;stroke-miterlimit:10;}
</style>

<g
   style="stroke-width:0.548416"
   transform="matrix(1.8234332,0,0,1.8234332,-425.70751,-99.518184)"
   id="g1210"><g
     aria-label="404"
     id="text974"
     style="font-size:51.7602px;line-height:1.25;font-family:Palatino;-inkscape-font-specification:Palatino;text-align:center;text-anchor:middle;fill:#821822;fill-opacity:1;stroke-width:0.548416"
     inkscape:transform-center-x="9.5319748e-06"
     inkscape:transform-center-y="-19.073632"><path
       d="m 236.84445,85.301449 q 0,-0.569363 0.31056,-1.138725 l 12.52597,-24.689616 q 0.7764,-1.501045 2.38097,-1.501045 0.87992,0 1.81161,0.621122 0.93168,0.621122 0.93168,1.501046 0,0.310561 -0.2588,0.828163 l -10.6626,21.273442 h 7.60875 v -7.142907 q 0,-1.811607 2.74329,-1.811607 1.13872,0 1.91512,0.465842 0.82817,0.465841 0.82817,1.345765 v 7.142907 h 2.53625 q 0.87992,0 1.34576,0.776404 0.5176,0.776403 0.5176,1.811607 0,0.931683 -0.56936,1.759846 -0.56936,0.776403 -1.294,0.776403 h -2.53625 v 6.677066 q 0,0.828163 -0.82817,1.345765 -0.82816,0.465842 -1.91512,0.465842 -1.13873,0 -1.96689,-0.465842 -0.7764,-0.517602 -0.7764,-1.345765 v -6.677066 h -12.73301 q -0.82817,0 -1.39753,-0.517602 -0.5176,-0.569362 -0.5176,-1.501045 z"
       style="font-style:normal;font-variant:normal;font-weight:600;font-stretch:normal;font-family:'Terminal Dosis';-inkscape-font-specification:'Terminal Dosis Semi-Bold';fill:#821822;fill-opacity:1;stroke-width:0.548416"
       id="path1113" /><path
       style="font-style:normal;font-variant:normal;font-weight:600;font-stretch:normal;font-family:'Terminal Dosis';-inkscape-font-specification:'Terminal Dosis Semi-Bold';fill:#958c87;fill-opacity:1;stroke-width:0.548416"
       d="m 274.39243,78.676143 c -0.41408,-0.414082 -0.62112,-0.948937 -0.62112,-1.604566 0,-0.655629 0.20704,-1.173231 0.62112,-1.552806 0.41408,-0.414082 0.94894,-0.621123 1.60457,-0.621123 0.65563,0 1.17323,0.207041 1.5528,0.621123 0.41409,0.379575 0.62113,0.897177 0.62113,1.552806 0,0.655629 -0.20704,1.190484 -0.62113,1.604566 -0.37957,0.414081 -0.89717,0.621122 -1.5528,0.621122 -0.65563,0 -1.19049,-0.207041 -1.60457,-0.621122 z"
       id="path1169" /><path
       id="path1167"
       style="font-style:normal;font-variant:normal;font-weight:600;font-stretch:normal;font-family:'Terminal Dosis';-inkscape-font-specification:'Terminal Dosis Semi-Bold';fill:#4f4a44;fill-opacity:1;stroke-width:0.548416"
       d="m 269.83753,84.576806 c 0,4.451377 2.0359,6.677066 6.10771,6.677066 1.96689,0 3.48519,-0.552109 4.5549,-1.656327 1.06971,-1.104217 1.60456,-2.777797 1.60456,-5.020739 V 69.514587 c 0,-2.242942 -0.53485,-3.916522 -1.60456,-5.020739 -1.06971,-1.104217 -2.58801,-1.656326 -4.5549,-1.656326 -4.07181,0 -6.10771,2.225688 -6.10771,6.677065 z m -5.48658,0 V 69.514587 c 0,-3.968282 1.05246,-6.884107 3.15737,-8.747474 2.10492,-1.863367 4.91723,-2.79505 8.43692,-2.79505 3.51969,0 6.332,0.931683 8.43691,2.79505 2.13942,1.863367 3.20913,4.779192 3.20913,8.747474 v 15.062219 c 0,3.968282 -1.06971,6.884107 -3.20913,8.747474 -2.10491,1.863367 -4.91722,2.79505 -8.43691,2.79505 -3.51969,0 -6.332,-0.931683 -8.43692,-2.79505 -2.10491,-1.863367 -3.15737,-4.779192 -3.15737,-8.747474 z" /><path
       d="m 290.32325,85.301449 q 0,-0.569363 0.31056,-1.138725 l 12.52597,-24.689616 q 0.7764,-1.501045 2.38097,-1.501045 0.87992,0 1.81161,0.621122 0.93168,0.621122 0.93168,1.501046 0,0.310561 -0.2588,0.828163 l -10.6626,21.273442 h 7.60875 v -7.142907 q 0,-1.811607 2.74329,-1.811607 1.13872,0 1.91513,0.465842 0.82816,0.465841 0.82816,1.345765 v 7.142907 h 2.53625 q 0.87992,0 1.34576,0.776404 0.51761,0.776403 0.51761,1.811607 0,0.931683 -0.56937,1.759846 -0.56936,0.776403 -1.294,0.776403 h -2.53625 v 6.677066 q 0,0.828163 -0.82816,1.345765 -0.82817,0.465842 -1.91513,0.465842 -1.13873,0 -1.96689,-0.465842 -0.7764,-0.517602 -0.7764,-1.345765 v -6.677066 h -12.73301 q -0.82816,0 -1.39753,-0.517602 -0.5176,-0.569362 -0.5176,-1.501045 z"
       style="font-style:normal;font-variant:normal;font-weight:600;font-stretch:normal;font-family:'Terminal Dosis';-inkscape-font-specification:'Terminal Dosis Semi-Bold';fill:#068587;fill-opacity:1;stroke-width:0.548416"
       id="path1117" /></g><g
     aria-label="Not Found"
     id="text1111"
     style="font-size:20.029px;line-height:1.25;font-family:Palatino;-inkscape-font-specification:Palatino;text-align:center;text-anchor:middle;fill:#4f4a44;fill-opacity:1;stroke-width:0.548413"><path
       d="m 237.77136,120.09653 v -13.45948 q 0,-0.58085 0.84122,-0.58085 0.42061,0 0.70102,0.26038 0.30043,0.24035 0.58084,0.80116 l 4.98722,9.75412 v -10.23481 q 0,-0.28041 0.24035,-0.42061 0.26037,-0.16024 0.60087,-0.16024 0.34049,0 0.58084,0.16024 0.26038,0.1402 0.26038,0.42061 v 13.45948 q 0,0.28041 -0.26038,0.44064 -0.24035,0.16023 -0.58084,0.16023 -0.64093,0 -1.06154,-0.7611 l -5.20754,-10.07459 v 10.23482 q 0,0.28041 -0.26038,0.44064 -0.24034,0.16023 -0.58084,0.16023 -0.34049,0 -0.60087,-0.16023 -0.24035,-0.16023 -0.24035,-0.44064 z"
       style="font-style:normal;font-variant:normal;font-weight:500;font-stretch:normal;font-family:'Terminal Dosis';-inkscape-font-specification:'Terminal Dosis Medium';fill:#4f4a44;fill-opacity:1;stroke-width:0.548413"
       id="path1120" /><path
       d="m 248.67152,116.97201 v -2.04296 q 0,-1.54223 1.16168,-2.68388 1.18171,-1.16169 2.78403,-1.16169 1.60232,0 2.78404,1.14166 1.18171,1.14165 1.18171,2.70391 v 2.04296 q 0,1.5222 -1.20174,2.70391 -1.18171,1.18171 -2.76401,1.18171 -1.58229,0 -2.764,-1.16168 -1.18171,-1.18171 -1.18171,-2.72394 z m 1.66241,0 q 0,0.94136 0.68098,1.66241 0.68099,0.72104 1.60232,0.72104 0.94137,0 1.62235,-0.72104 0.68099,-0.74108 0.68099,-1.66241 v -2.04296 q 0,-0.9013 -0.68099,-1.62235 -0.68098,-0.72104 -1.62235,-0.72104 -0.94136,0 -1.62234,0.72104 -0.66096,0.72105 -0.66096,1.62235 z"
       style="font-style:normal;font-variant:normal;font-weight:500;font-stretch:normal;font-family:'Terminal Dosis';-inkscape-font-specification:'Terminal Dosis Medium';fill:#4f4a44;fill-opacity:1;stroke-width:0.548413"
       id="path1122" /><path
       d="m 258.53706,117.67302 v -10.31493 q 0,-0.24035 0.26037,-0.40058 0.26038,-0.18026 0.56081,-0.18026 0.32047,0 0.58085,0.18026 0.26037,0.16023 0.26037,0.40058 v 3.84557 h 2.52366 q 0.22032,0 0.36052,0.20029 0.1402,0.20029 0.1402,0.46066 0,0.26038 -0.1402,0.46067 -0.1402,0.18026 -0.36052,0.18026 h -2.52366 v 5.16748 q 0,0.86125 0.36052,1.22177 0.38056,0.3405 1.30189,0.3405 h 0.6209 q 0.34049,0 0.52075,0.22031 0.20029,0.20029 0.20029,0.50073 0,0.30043 -0.20029,0.52075 -0.20029,0.22032 -0.52075,0.22032 h -0.6209 q -3.32481,0 -3.32481,-3.02438 z"
       style="font-style:normal;font-variant:normal;font-weight:500;font-stretch:normal;font-family:'Terminal Dosis';-inkscape-font-specification:'Terminal Dosis Medium';fill:#4f4a44;fill-opacity:1;stroke-width:0.548413"
       id="path1124" /><path
       d="m 269.02756,120.11656 v -13.45949 q 0,-0.2804 0.22031,-0.44063 0.24035,-0.16024 0.54079,-0.16024 h 7.05021 q 0.2804,0 0.4206,0.22032 0.16024,0.22032 0.16024,0.52076 0,0.34049 -0.16024,0.56081 -0.1402,0.22032 -0.4206,0.22032 h -6.12888 v 5.08736 h 3.12453 q 0.2804,0 0.4206,0.22032 0.16024,0.20029 0.16024,0.50073 0,0.26038 -0.16024,0.48069 -0.1402,0.20029 -0.4206,0.20029 h -3.12453 v 6.04876 q 0,0.28041 -0.26038,0.44064 -0.24034,0.1402 -0.58084,0.1402 -0.34049,0 -0.60087,-0.1402 -0.24034,-0.16023 -0.24034,-0.44064 z"
       style="font-style:normal;font-variant:normal;font-weight:500;font-stretch:normal;font-family:'Terminal Dosis';-inkscape-font-specification:'Terminal Dosis Medium';fill:#4f4a44;fill-opacity:1;stroke-width:0.548413"
       id="path1126" /><path
       d="m 276.28964,116.97201 v -2.04296 q 0,-1.54223 1.16168,-2.68388 1.18171,-1.16169 2.78403,-1.16169 1.60232,0 2.78403,1.14166 1.18171,1.14165 1.18171,2.70391 v 2.04296 q 0,1.5222 -1.20174,2.70391 -1.18171,1.18171 -2.764,1.18171 -1.58229,0 -2.764,-1.16168 -1.18171,-1.18171 -1.18171,-2.72394 z m 1.6624,0 q 0,0.94136 0.68099,1.66241 0.68098,0.72104 1.60232,0.72104 0.94136,0 1.62235,-0.72104 0.68098,-0.74108 0.68098,-1.66241 v -2.04296 q 0,-0.9013 -0.68098,-1.62235 -0.68099,-0.72104 -1.62235,-0.72104 -0.94136,0 -1.62235,0.72104 -0.66096,0.72105 -0.66096,1.62235 z"
       style="font-style:normal;font-variant:normal;font-weight:500;font-stretch:normal;font-family:'Terminal Dosis';-inkscape-font-specification:'Terminal Dosis Medium';fill:#4f4a44;fill-opacity:1;stroke-width:0.548413"
       id="path1128" /><path
       d="m 286.11511,117.01207 v -5.20754 q 0,-0.24035 0.24035,-0.42061 0.26037,-0.18026 0.60087,-0.18026 0.32046,0 0.56081,0.20029 0.26038,0.18026 0.26038,0.40058 v 5.20754 q 0,0.9013 0.68098,1.62235 0.68099,0.72104 1.62235,0.72104 0.92133,0 1.60232,-0.70101 0.68099,-0.72105 0.68099,-1.64238 v -5.22757 q 0,-0.22032 0.24034,-0.40058 0.26038,-0.18026 0.60087,-0.18026 0.36053,0 0.58084,0.18026 0.24035,0.16023 0.24035,0.40058 v 5.22757 q 0,1.54223 -1.18171,2.70391 -1.16168,1.14165 -2.764,1.14165 -1.62235,0 -2.80406,-1.14165 -1.16168,-1.16168 -1.16168,-2.70391 z"
       style="font-style:normal;font-variant:normal;font-weight:500;font-stretch:normal;font-family:'Terminal Dosis';-inkscape-font-specification:'Terminal Dosis Medium';fill:#4f4a44;fill-opacity:1;stroke-width:0.548413"
       id="path1130" /><path
       d="m 296.32708,120.09653 v -8.31203 q 0,-0.26038 0.22032,-0.42061 0.24035,-0.16023 0.60087,-0.16023 0.30044,0 0.52076,0.18026 0.24034,0.16023 0.24034,0.40058 v 0.82119 q 0.32047,-0.64093 1.02148,-1.08157 0.72105,-0.44064 1.66241,-0.44064 1.42206,0 2.46357,1.14166 1.06153,1.12162 1.06153,2.70391 v 5.16748 q 0,0.28041 -0.26037,0.44064 -0.24035,0.16023 -0.58084,0.16023 -0.32047,0 -0.58085,-0.16023 -0.24034,-0.16023 -0.24034,-0.44064 v -5.16748 q 0,-0.9013 -0.68099,-1.62235 -0.68099,-0.72104 -1.60232,-0.72104 -0.86125,0 -1.5222,0.66096 -0.66096,0.64092 -0.66096,1.68243 v 5.16748 q 0,0.22032 -0.26038,0.42061 -0.26037,0.18026 -0.58084,0.18026 -0.34049,0 -0.58084,-0.18026 -0.24035,-0.18026 -0.24035,-0.42061 z"
       style="font-style:normal;font-variant:normal;font-weight:500;font-stretch:normal;font-family:'Terminal Dosis';-inkscape-font-specification:'Terminal Dosis Medium';fill:#4f4a44;fill-opacity:1;stroke-width:0.548413"
       id="path1132" /><path
       d="m 306.0593,116.97201 v -2.04296 q 0,-1.58229 1.06153,-2.70391 1.06154,-1.14166 2.52366,-1.14166 0.9013,0 1.58229,0.44064 0.68098,0.44064 1.04151,1.08157 v -6.54949 q 0,-0.26037 0.24034,-0.4206 0.24035,-0.16024 0.60087,-0.16024 0.36053,0 0.58085,0.16024 0.24034,0.16023 0.24034,0.4206 v 14.04033 q 0,0.24035 -0.24034,0.42061 -0.24035,0.18026 -0.58085,0.18026 -0.30043,0 -0.54078,-0.18026 -0.22032,-0.18026 -0.22032,-0.42061 v -0.80116 q -0.34049,0.64093 -1.10159,1.1016 -0.7611,0.46066 -1.66241,0.46066 -1.40203,0 -2.46357,-1.18171 -1.06153,-1.18171 -1.06153,-2.70391 z m 1.6624,0 q 0,0.92133 0.68099,1.66241 0.68099,0.72104 1.58229,0.72104 0.88128,0 1.58229,-0.66096 0.70102,-0.68098 0.70102,-1.18171 v -2.58374 q 0,-1.04151 -0.68099,-1.68243 -0.68099,-0.66096 -1.58229,-0.66096 -0.92133,0 -1.60232,0.72104 -0.68099,0.72105 -0.68099,1.62235 z"
       style="font-style:normal;font-variant:normal;font-weight:500;font-stretch:normal;font-family:'Terminal Dosis';-inkscape-font-specification:'Terminal Dosis Medium';fill:#4f4a44;fill-opacity:1;stroke-width:0.548413"
       id="path1134" /></g></g></svg>
