<?xml version="1.0" encoding="iso-8859-1"?>
<!-- Generator: Adobe Illustrator 22.0.1, SVG Export Plug-In . SVG Version: 6.00 Build 0)  -->
<svg version="1.1" id="Layer_1" xmlns="http://www.w3.org/2000/svg" xmlns:xlink="http://www.w3.org/1999/xlink" x="0px" y="0px"
	 viewBox="0 0 400 80" style="enable-background:new 0 0 400 80;" xml:space="preserve">
<g>
	<defs>
		<rect id="SVGID_1_" width="400" height="80"/>
	</defs>
	<clipPath id="SVGID_2_">
		<use xlink:href="#SVGID_1_"  style="overflow:visible;"/>
	</clipPath>
	<rect style="clip-path:url(#SVGID_2_);fill:#094D8E;" width="400" height="80"/>
	<g style="clip-path:url(#SVGID_2_);">
		<path style="fill:#CDE5FC;" d="M0.001,0.077h12.893c4.378,0,7.772,1.578,10.185,4.734c2.152,2.848,3.229,6.495,3.229,10.942
			c0,3.435-0.636,6.539-1.907,9.313c-2.239,4.902-6.089,7.353-11.55,7.353H0.001V0.077z M12.037,28.676
			c1.445,0,2.634-0.154,3.564-0.462c1.66-0.572,3.02-1.673,4.08-3.302c0.844-1.306,1.453-2.98,1.825-5.02
			c0.215-1.218,0.322-2.348,0.322-3.391c0-4.007-0.777-7.119-2.33-9.335c-1.553-2.216-4.054-3.324-7.504-3.324H4.414v24.834H12.037z
			"/>
		<path style="fill:#CDE5FC;" d="M37.766,0.077h4.414v32.342h-4.414V0.077z"/>
		<path style="fill:#CDE5FC;" d="M75.242,1.002c3.16,1.688,5.093,4.645,5.8,8.873h-4.326C76.2,7.511,75.132,5.79,73.512,4.711
			s-3.663-1.618-6.128-1.618c-2.925,0-5.387,1.123-7.387,3.368c-2,2.246-3,5.592-3,10.039c0,3.846,0.825,6.976,2.475,9.39
			c1.65,2.414,4.34,3.622,8.07,3.622c2.855,0,5.219-0.848,7.091-2.543c1.872-1.695,2.83-4.436,2.874-8.223H67.406v-3.633h14.164
			v17.305h-2.811l-1.054-4.161c-1.455,1.629-2.743,2.76-3.867,3.391c-1.887,1.086-4.284,1.629-7.193,1.629
			c-3.759,0-6.992-1.24-9.699-3.721c-2.952-3.112-4.428-7.383-4.428-12.813c0-5.416,1.443-9.723,4.328-12.924
			c2.741-3.053,6.291-4.579,10.648-4.579C70.481-0.76,73.063-0.172,75.242,1.002z"/>
		<path style="fill:#CDE5FC;" d="M94.235,0.077h4.414v32.342h-4.414V0.077z"/>
		<path style="fill:#CDE5FC;" d="M133.691,0.077V3.93h-10.87v28.489h-4.414V3.93h-10.87V0.077H133.691z"/>
		<path style="fill:#CDE5FC;" d="M151.62,0.077h4.933l11.708,32.342h-4.787l-3.368-9.687h-12.655l-3.498,9.687h-4.48L151.62,0.077z
			 M158.866,19.165L153.9,4.877l-5.161,14.289H158.866z"/>
		<path style="fill:#CDE5FC;" d="M176.7,0.077h4.37v28.489h16.184v3.853H176.7V0.077z"/>
	</g>
	<g style="clip-path:url(#SVGID_2_);">
		<path style="fill:#CDE5FC;" d="M-0.25,41.523h2.676v16.072H12.48V41.523h2.676v38.896H12.48v-18.19H2.427v18.19H-0.25V41.523z"/>
		<path style="fill:#CDE5FC;" d="M25.922,41.523v24.042c0,2.824,0.269,5.172,0.805,7.043c0.796,2.824,2.139,4.236,4.027,4.236
			c2.264,0,3.802-1.527,4.617-4.581c0.438-1.659,0.658-3.892,0.658-6.699V41.523h2.676v21.844c0,4.784-0.325,8.464-0.975,11.041
			c-1.194,4.696-3.448,7.043-6.761,7.043c-3.314,0-5.563-2.347-6.748-7.043c-0.65-2.577-0.975-6.258-0.975-11.041V41.523H25.922z"/>
		<path style="fill:#CDE5FC;" d="M46.368,41.523h3.796l5.625,32.886l5.585-32.886h3.769v38.896h-2.53V57.463
			c0-0.794,0.009-2.109,0.027-3.945c0.018-1.836,0.027-3.804,0.027-5.905l-5.585,32.806h-2.625l-5.638-32.806v1.192
			c0,0.953,0.013,2.405,0.04,4.356c0.027,1.951,0.04,3.385,0.04,4.303v22.956h-2.53V41.523z"/>
		<path style="fill:#CDE5FC;" d="M78.541,41.523h2.991l7.1,38.896h-2.903l-2.042-11.65h-7.674l-2.121,11.65h-2.716L78.541,41.523z
			 M82.935,64.479l-3.012-17.184l-3.13,17.184H82.935z"/>
		<path style="fill:#CDE5FC;" d="M94.703,41.523h3.121l9.755,31.427V41.523h2.53v38.896h-2.977l-9.9-31.389v31.389h-2.53V41.523z"/>
		<path style="fill:#CDE5FC;" d="M118.678,41.523h2.676v38.896h-2.676V41.523z"/>
		<path style="fill:#CDE5FC;" d="M143.559,41.523v4.634h-6.591v34.262h-2.676V46.157h-6.591v-4.634H143.559z"/>
		<path style="fill:#CDE5FC;" d="M150.276,41.523h2.676v38.896h-2.676V41.523z"/>
		<path style="fill:#CDE5FC;" d="M161.188,41.523h14.195v4.766h-11.611v11.809h10.732v4.501h-10.732v13.186h11.811v4.634h-14.394
			V41.523z"/>
		<path style="fill:#CDE5FC;" d="M184.537,67.869c0.06,2.207,0.312,3.998,0.757,5.375c0.847,2.578,2.339,3.866,4.477,3.866
			c0.958,0,1.83-0.282,2.617-0.847c1.522-1.094,2.283-3.054,2.283-5.878c0-2.118-0.323-3.627-0.968-4.528
			c-0.654-0.883-1.677-1.65-3.07-2.304l-2.567-1.192c-1.677-0.777-2.864-1.632-3.56-2.568c-1.204-1.624-1.806-4.051-1.806-7.281
			c0-3.495,0.592-6.364,1.775-8.605c1.184-2.241,2.86-3.363,5.028-3.363c1.995,0,3.691,0.984,5.086,2.952
			c1.395,1.969,2.093,5.115,2.093,9.439h-2.49c-0.128-2.083-0.4-3.68-0.817-4.792c-0.775-2.03-2.089-3.045-3.945-3.045
			c-1.498,0-2.575,0.653-3.23,1.959c-0.655,1.307-0.983,2.824-0.983,4.554c0,1.906,0.387,3.301,1.161,4.184
			c0.507,0.565,1.656,1.271,3.445,2.118l2.658,1.244c1.282,0.6,2.271,1.421,2.967,2.462c1.204,1.818,1.806,4.457,1.806,7.917
			c0,4.307-0.768,7.387-2.305,9.241c-1.537,1.853-3.322,2.78-5.357,2.78c-2.372,0-4.229-1.235-5.571-3.707
			c-1.342-2.453-2-5.781-1.974-9.982H184.537z"/>
	</g>
	<g style="clip-path:url(#SVGID_2_);">
		<path style="fill:#CDE5FC;" d="M202.957-0.186h10.925v71.223h40.459v9.632h-51.384V-0.186z"/>
		<path style="fill:#CDE5FC;" d="M287.895-0.186h12.332l29.27,80.855h-11.968l-8.419-24.218h-31.639l-8.746,24.218h-11.199
			L287.895-0.186z M306.009,47.535l-12.416-35.721l-12.902,35.721H306.009z"/>
		<path style="fill:#CDE5FC;" d="M337.952-0.186h34.869c9.504,0,16.264,2.826,20.28,8.476c2.358,3.34,3.537,7.192,3.537,11.559
			c0,5.101-1.446,9.284-4.337,12.549c-1.501,1.725-3.66,3.302-6.478,4.734c4.136,1.578,7.227,3.357,9.278,5.339
			c3.623,3.523,5.435,8.385,5.435,14.586c0,5.211-1.639,9.926-4.916,14.145c-4.898,6.312-12.686,9.467-23.365,9.467h-34.302V-0.186z
			 M368.738,33.995c4.659,0,8.284-0.641,10.872-1.926c4.068-2.017,6.102-5.65,6.102-10.898c0-5.284-2.163-8.842-6.49-10.678
			c-2.442-1.027-6.067-1.541-10.873-1.541h-19.693v25.044H368.738z M372.431,71.312c6.76,0,11.581-1.944,14.464-5.834
			c1.809-2.458,2.716-5.43,2.716-8.917c0-5.87-2.642-9.87-7.925-11.999c-2.809-1.137-6.521-1.706-11.139-1.706h-21.889v28.456
			H372.431z"/>
	</g>
</g>
</svg>
